<svg width="1166" height="389" fill="none" xmlns="http://www.w3.org/2000/svg"><rect x="844" y="67" width="319" height="319" rx="71" fill="#fff" stroke="url(#a)" stroke-width="6"/><rect x="3" y="67" width="319" height="319" rx="71" fill="#fff" stroke="url(#b)" stroke-width="6"/><g clip-path="url(#c)"><path d="M1024.11 147H1083v159H924V147h58.796c.582 10.904 9.607 19.568 20.654 19.568 11.05 0 20.08-8.661 20.66-19.568Z" fill="#654FF0" stroke="url(#d)" stroke-width="4"/><path d="M959.863 232.842h10.803l7.375 39.277h.133l8.863-39.277h10.105l8.008 39.759h.16l8.4-39.759h10.6l-13.77 57.713h-10.721l-7.939-39.277h-.208l-8.499 39.277h-10.92l-12.39-57.713Zm76.627 0h17.03l16.91 57.713h-11.15l-3.67-12.843h-19.4l-2.84 12.843h-10.86l13.98-57.713Zm6.48 14.225-4.71 21.174h14.66l-5.41-21.174h-4.54Z" fill="#fff"/></g><path d="M385 147a2 2 0 1 1 0-4v4Zm397.414-3.414a2 2 0 0 1 0 2.828l-12.728 12.728a2 2 0 1 1-2.828-2.828L778.172 145l-11.314-11.314a2 2 0 1 1 2.828-2.828l12.728 12.728ZM385 143h396v4H385v-4ZM781 308a2 2 0 1 0 0-4v4Zm-397.414-3.414a2 2 0 0 0 0 2.828l12.728 12.728a2 2 0 1 0 2.828-2.828L387.828 306l11.314-11.314a2 2 0 1 0-2.828-2.828l-12.728 12.728ZM781 304h-4.95v4H781v-4Zm-14.85 0h-9.9v4h9.9v-4Zm-19.8 0h-9.9v4h9.9v-4Zm-19.8 0h-9.9v4h9.9v-4Zm-19.8 0h-9.9v4h9.9v-4Zm-19.8 0h-9.9v4h9.9v-4Zm-19.8 0h-9.9v4h9.9v-4Zm-19.8 0h-9.9v4h9.9v-4Zm-19.8 0h-9.9v4h9.9v-4Zm-19.8 0h-9.9v4h9.9v-4Zm-19.8 0h-9.9v4h9.9v-4Zm-19.8 0h-9.9v4h9.9v-4Zm-19.8 0h-9.9v4h9.9v-4Zm-19.8 0h-9.9v4h9.9v-4Zm-19.8 0h-9.9v4h9.9v-4Zm-19.8 0h-9.9v4h9.9v-4Zm-19.8 0h-9.9v4h9.9v-4Zm-19.8 0h-9.9v4h9.9v-4Zm-19.8 0h-9.9v4h9.9v-4Zm-19.8 0h-9.9v4h9.9v-4Zm-19.8 0H385v4h4.95v-4ZM781 308a2 2 0 1 0 0-4v4Zm-397.414-3.414a2 2 0 0 0 0 2.828l12.728 12.728a2 2 0 1 0 2.828-2.828L387.828 306l11.314-11.314a2 2 0 1 0-2.828-2.828l-12.728 12.728ZM781 304h-4.95v4H781v-4Zm-14.85 0h-9.9v4h9.9v-4Zm-19.8 0h-9.9v4h9.9v-4Zm-19.8 0h-9.9v4h9.9v-4Zm-19.8 0h-9.9v4h9.9v-4Zm-19.8 0h-9.9v4h9.9v-4Zm-19.8 0h-9.9v4h9.9v-4Zm-19.8 0h-9.9v4h9.9v-4Zm-19.8 0h-9.9v4h9.9v-4Zm-19.8 0h-9.9v4h9.9v-4Zm-19.8 0h-9.9v4h9.9v-4Zm-19.8 0h-9.9v4h9.9v-4Zm-19.8 0h-9.9v4h9.9v-4Zm-19.8 0h-9.9v4h9.9v-4Zm-19.8 0h-9.9v4h9.9v-4Zm-19.8 0h-9.9v4h9.9v-4Zm-19.8 0h-9.9v4h9.9v-4Zm-19.8 0h-9.9v4h9.9v-4Zm-19.8 0h-9.9v4h9.9v-4Zm-19.8 0h-9.9v4h9.9v-4Zm-19.8 0H385v4h4.95v-4ZM909.006 338.788c.036 1.044.306 1.83.81 2.358.516.528 1.164.792 1.944.792.468 0 .894-.066 1.278-.198.396-.144.816-.36 1.26-.648L915 342.1a5.04 5.04 0 0 1-1.53.81 5.274 5.274 0 0 1-1.71.288c-1.368 0-2.436-.444-3.204-1.332-.756-.9-1.134-2.1-1.134-3.6 0-.948.168-1.794.504-2.538.336-.756.816-1.344 1.44-1.764.624-.432 1.35-.648 2.178-.648 1.2 0 2.142.42 2.826 1.26.696.828 1.044 1.962 1.044 3.402 0 .276-.012.546-.036.81h-6.372Zm2.556-4.23c-.732 0-1.326.264-1.782.792-.456.516-.714 1.278-.774 2.286h4.932c-.012-.996-.228-1.758-.648-2.286-.42-.528-.996-.792-1.728-.792Zm7.031-1.044h1.296l.126 1.332a3.77 3.77 0 0 1 1.404-1.116 3.969 3.969 0 0 1 1.728-.414c1.776 0 2.664.936 2.664 2.808V343h-1.512v-5.76c0-.708-.042-1.248-.126-1.62-.072-.372-.222-.648-.45-.828-.228-.18-.576-.27-1.044-.27-.516 0-1.002.156-1.458.468a4.114 4.114 0 0 0-1.116 1.116V343h-1.512v-9.486Zm17.993-3.816V343h-1.332l-.144-1.242c-.348.48-.75.84-1.206 1.08-.456.24-.948.36-1.476.36-1.2 0-2.106-.438-2.718-1.314-.6-.876-.9-2.082-.9-3.618 0-.948.15-1.794.45-2.538.3-.756.726-1.344 1.278-1.764.564-.432 1.224-.648 1.98-.648 1.044 0 1.896.378 2.556 1.134v-4.932l1.512.18Zm-3.672 4.842c-.792 0-1.404.312-1.836.936-.42.624-.63 1.554-.63 2.79 0 1.224.192 2.154.576 2.79.396.624.966.936 1.71.936.9 0 1.68-.504 2.34-1.512v-4.716a2.72 2.72 0 0 0-.954-.9 2.36 2.36 0 0 0-1.206-.324Zm10.505 7.416c.72 0 1.29-.138 1.71-.414.42-.276.63-.642.63-1.098 0-.312-.054-.564-.162-.756-.108-.204-.324-.384-.648-.54-.324-.168-.816-.336-1.476-.504-1.104-.276-1.92-.606-2.448-.99-.528-.396-.792-.978-.792-1.746 0-.792.33-1.422.99-1.89.66-.468 1.53-.702 2.61-.702 1.32 0 2.472.348 3.456 1.044l-.684 1.044a4.848 4.848 0 0 0-1.242-.63c-.432-.156-.93-.234-1.494-.234-1.368 0-2.052.414-2.052 1.242 0 .288.072.522.216.702.156.18.402.342.738.486.348.132.864.294 1.548.486 1.032.276 1.8.63 2.304 1.062.516.42.774 1.038.774 1.854 0 .948-.384 1.656-1.152 2.124-.768.468-1.71.702-2.826.702-1.488 0-2.724-.426-3.708-1.278l.846-.99a4.88 4.88 0 0 0 1.314.756 4.47 4.47 0 0 0 1.548.27Zm8.003-5.238h6.3v1.296h-6.3v-1.296ZM966.661 343l-1.242-6.948-1.332 6.948h-2.088l-1.71-9.486h1.53l1.224 8.55 1.512-7.344h1.782l1.422 7.344 1.224-8.55h1.458L968.803 343h-2.142Zm9.497-13.914c.336 0 .606.102.81.306.204.192.306.444.306.756s-.102.57-.306.774c-.204.192-.474.288-.81.288-.324 0-.588-.096-.792-.288a1.085 1.085 0 0 1-.288-.774c0-.312.096-.564.288-.756.204-.204.468-.306.792-.306Zm1.206 12.708h2.664V343h-7.092v-1.206h2.916v-7.074h-2.826v-1.206h4.338v8.28Zm13.529.72c-.324.216-.72.384-1.188.504-.456.12-.912.18-1.368.18-.996 0-1.776-.258-2.34-.774-.564-.528-.846-1.218-.846-2.07v-5.652h-2.178v-1.188h2.178v-2.142l1.512-.18v2.322h3.294l-.198 1.188h-3.096v5.634c0 .54.144.942.432 1.206.288.264.75.396 1.386.396.648 0 1.254-.15 1.818-.45l.594 1.026Zm4.763-7.686a3.85 3.85 0 0 1 1.368-1.116 3.769 3.769 0 0 1 1.674-.396c1.772 0 2.662.936 2.662 2.808V343h-1.51v-6.858c0-.564-.132-.972-.396-1.224-.264-.264-.684-.396-1.26-.396-.492 0-.966.156-1.422.468a4.229 4.229 0 0 0-1.116 1.098V343h-1.512v-13.284l1.512-.162v5.274Zm9.734 1.89h6.3v1.296h-6.3v-1.296Zm11.96 6.282h-1.51v-13.302l1.51-.18V343Zm2.07-5.202 4.75 5.202h-2l-4.66-5.184 4.21-4.302h1.95l-4.25 4.284Zm8.31.99c.03 1.044.3 1.83.81 2.358s1.16.792 1.94.792c.47 0 .9-.066 1.28-.198a6.1 6.1 0 0 0 1.26-.648l.7 1.008c-.44.348-.95.618-1.53.81-.56.192-1.13.288-1.71.288-1.37 0-2.43-.444-3.2-1.332-.76-.9-1.14-2.1-1.14-3.6 0-.948.17-1.794.51-2.538.33-.756.81-1.344 1.44-1.764.62-.432 1.35-.648 2.18-.648 1.2 0 2.14.42 2.82 1.26.7.828 1.05 1.962 1.05 3.402 0 .276-.02.546-.04.81h-6.37Zm2.55-4.23c-.73 0-1.32.264-1.78.792-.45.516-.71 1.278-.77 2.286h4.93c-.01-.996-.23-1.758-.65-2.286-.42-.528-.99-.792-1.73-.792Zm11.61 8.496c-.37 1.092-.88 1.962-1.53 2.61-.65.648-1.56 1.032-2.72 1.152l-.22-1.206c.64-.108 1.14-.276 1.52-.504.38-.216.68-.492.9-.828.21-.324.41-.75.59-1.278h-.5l-3.3-9.486h1.6l2.72 8.334 2.68-8.334h1.57l-3.31 9.54Zm8.22-1.44c0-.444.15-.816.45-1.116.31-.312.69-.468 1.13-.468.46 0 .83.156 1.13.468.3.3.45.672.45 1.116 0 .456-.15.834-.45 1.134-.3.3-.67.45-1.13.45-.44 0-.82-.15-1.13-.45-.3-.312-.45-.69-.45-1.134ZM1063.8 343l-1.24-6.948-1.34 6.948h-2.08l-1.71-9.486h1.53l1.22 8.55 1.51-7.344h1.78l1.43 7.344 1.22-8.55h1.46l-1.64 9.486h-2.14Zm12.7-2.07c0 .372.06.648.18.828.12.168.32.294.59.378l-.38 1.08c-.92-.12-1.5-.57-1.72-1.35-.34.432-.77.762-1.28.99-.51.228-1.07.342-1.69.342-.95 0-1.7-.264-2.25-.792-.54-.528-.81-1.236-.81-2.124 0-.972.37-1.722 1.13-2.25.77-.528 1.87-.792 3.29-.792h1.41v-.774c0-.672-.19-1.152-.58-1.44-.38-.3-.94-.45-1.67-.45-.72 0-1.54.162-2.47.486l-.41-1.152c1.11-.396 2.15-.594 3.11-.594 1.15 0 2.03.27 2.63.81.61.54.92 1.29.92 2.25v4.554Zm-3.93 1.134c.47 0 .92-.12 1.34-.36.43-.24.78-.57 1.06-.99v-2.43h-1.37c-1.01 0-1.73.168-2.18.504-.44.336-.66.828-.66 1.476 0 1.2.6 1.8 1.81 1.8Zm11.16-.108c.72 0 1.29-.138 1.71-.414.42-.276.63-.642.63-1.098 0-.312-.06-.564-.16-.756-.11-.204-.33-.384-.65-.54-.33-.168-.82-.336-1.48-.504-1.1-.276-1.92-.606-2.45-.99-.52-.396-.79-.978-.79-1.746 0-.792.33-1.422.99-1.89.66-.468 1.53-.702 2.61-.702 1.32 0 2.47.348 3.46 1.044l-.69 1.044a4.773 4.773 0 0 0-1.24-.63c-.43-.156-.93-.234-1.49-.234-1.37 0-2.05.414-2.05 1.242 0 .288.07.522.21.702.16.18.4.342.74.486.35.132.86.294 1.55.486 1.03.276 1.8.63 2.3 1.062.52.42.78 1.038.78 1.854 0 .948-.39 1.656-1.16 2.124-.76.468-1.71.702-2.82.702-1.49 0-2.73-.426-3.71-1.278l.85-.99c.38.312.82.564 1.31.756.49.18 1.01.27 1.55.27Zm13.8-8.64c.54 0 .97.192 1.31.576.35.372.52 1.056.52 2.052V343h-1.38v-6.804c0-.66-.05-1.104-.13-1.332-.08-.24-.29-.36-.61-.36-.61 0-1.17.378-1.66 1.134V343h-1.4v-6.804c0-.66-.04-1.104-.13-1.332-.08-.24-.29-.36-.61-.36-.61 0-1.16.378-1.66 1.134V343h-1.38v-9.486h1.17l.11 1.116c.28-.42.58-.744.9-.972.32-.228.7-.342 1.15-.342.89 0 1.46.42 1.71 1.26.29-.408.59-.72.92-.936.32-.216.71-.324 1.17-.324ZM52.006 327.788c.036 1.044.306 1.83.81 2.358.516.528 1.164.792 1.944.792.468 0 .894-.066 1.278-.198.396-.144.816-.36 1.26-.648L58 331.1a5.04 5.04 0 0 1-1.53.81 5.274 5.274 0 0 1-1.71.288c-1.368 0-2.436-.444-3.204-1.332-.756-.9-1.134-2.1-1.134-3.6 0-.948.168-1.794.504-2.538.336-.756.816-1.344 1.44-1.764.624-.432 1.35-.648 2.178-.648 1.2 0 2.142.42 2.826 1.26.696.828 1.044 1.962 1.044 3.402 0 .276-.012.546-.036.81h-6.372Zm2.556-4.23c-.732 0-1.326.264-1.782.792-.456.516-.714 1.278-.774 2.286h4.932c-.012-.996-.228-1.758-.648-2.286-.42-.528-.996-.792-1.728-.792Zm7.031-1.044h1.296l.126 1.332a3.77 3.77 0 0 1 1.404-1.116 3.969 3.969 0 0 1 1.728-.414c1.776 0 2.664.936 2.664 2.808V332h-1.512v-5.76c0-.708-.042-1.248-.126-1.62-.072-.372-.222-.648-.45-.828-.228-.18-.576-.27-1.044-.27-.516 0-1.002.156-1.458.468a4.114 4.114 0 0 0-1.116 1.116V332h-1.512v-9.486Zm17.993-3.816V332h-1.332l-.144-1.242c-.348.48-.75.84-1.206 1.08-.456.24-.948.36-1.476.36-1.2 0-2.106-.438-2.718-1.314-.6-.876-.9-2.082-.9-3.618 0-.948.15-1.794.45-2.538.3-.756.726-1.344 1.278-1.764.564-.432 1.224-.648 1.98-.648 1.044 0 1.896.378 2.556 1.134v-4.932l1.512.18Zm-3.672 4.842c-.792 0-1.404.312-1.836.936-.42.624-.63 1.554-.63 2.79 0 1.224.192 2.154.576 2.79.396.624.966.936 1.71.936.9 0 1.68-.504 2.34-1.512v-4.716a2.72 2.72 0 0 0-.954-.9 2.36 2.36 0 0 0-1.206-.324Zm10.505 7.416c.72 0 1.29-.138 1.71-.414.42-.276.63-.642.63-1.098 0-.312-.054-.564-.162-.756-.108-.204-.324-.384-.648-.54-.324-.168-.816-.336-1.476-.504-1.104-.276-1.92-.606-2.448-.99-.528-.396-.792-.978-.792-1.746 0-.792.33-1.422.99-1.89.66-.468 1.53-.702 2.61-.702 1.32 0 2.472.348 3.456 1.044l-.684 1.044a4.848 4.848 0 0 0-1.242-.63c-.432-.156-.93-.234-1.494-.234-1.368 0-2.052.414-2.052 1.242 0 .288.072.522.216.702.156.18.402.342.738.486.348.132.864.294 1.548.486 1.032.276 1.8.63 2.304 1.062.516.42.774 1.038.774 1.854 0 .948-.384 1.656-1.152 2.124-.768.468-1.71.702-2.826.702-1.488 0-2.724-.426-3.708-1.278l.846-.99a4.88 4.88 0 0 0 1.314.756 4.47 4.47 0 0 0 1.548.27Zm8.003-5.238h6.3v1.296h-6.3v-1.296ZM109.66 332l-1.242-6.948-1.332 6.948h-2.088l-1.71-9.486h1.53l1.224 8.55 1.512-7.344h1.782l1.422 7.344 1.224-8.55h1.458L111.803 332h-2.142Zm9.497-13.914c.336 0 .606.102.81.306.204.192.306.444.306.756s-.102.57-.306.774c-.204.192-.474.288-.81.288-.324 0-.588-.096-.792-.288a1.085 1.085 0 0 1-.288-.774c0-.312.096-.564.288-.756.204-.204.468-.306.792-.306Zm1.206 12.708h2.664V332h-7.092v-1.206h2.916v-7.074h-2.826v-1.206h4.338v8.28Zm13.529.72c-.324.216-.72.384-1.188.504-.456.12-.912.18-1.368.18-.996 0-1.776-.258-2.34-.774-.564-.528-.846-1.218-.846-2.07v-5.652h-2.178v-1.188h2.178v-2.142l1.512-.18v2.322h3.294l-.198 1.188h-3.096v5.634c0 .54.144.942.432 1.206.288.264.75.396 1.386.396.648 0 1.254-.15 1.818-.45l.594 1.026Zm4.763-7.686a3.85 3.85 0 0 1 1.368-1.116 3.769 3.769 0 0 1 1.674-.396c1.776 0 2.664.936 2.664 2.808V332h-1.512v-6.858c0-.564-.132-.972-.396-1.224-.264-.264-.684-.396-1.26-.396-.492 0-.966.156-1.422.468a4.229 4.229 0 0 0-1.116 1.098V332h-1.512v-13.284l1.512-.162v5.274Zm9.731 1.89h6.3v1.296h-6.3v-1.296ZM160.35 332h-1.512v-13.302l1.512-.18V332Zm2.07-5.202 4.752 5.202h-1.998l-4.662-5.184 4.212-4.302h1.944l-4.248 4.284Zm8.309.99c.036 1.044.306 1.83.81 2.358.516.528 1.164.792 1.944.792.468 0 .894-.066 1.278-.198.396-.144.816-.36 1.26-.648l.702 1.008a5.04 5.04 0 0 1-1.53.81 5.274 5.274 0 0 1-1.71.288c-1.368 0-2.436-.444-3.204-1.332-.756-.9-1.134-2.1-1.134-3.6 0-.948.168-1.794.504-2.538.336-.756.816-1.344 1.44-1.764.624-.432 1.35-.648 2.178-.648 1.2 0 2.142.42 2.826 1.26.696.828 1.044 1.962 1.044 3.402 0 .276-.012.546-.036.81h-6.372Zm2.556-4.23c-.732 0-1.326.264-1.782.792-.456.516-.714 1.278-.774 2.286h4.932c-.012-.996-.228-1.758-.648-2.286-.42-.528-.996-.792-1.728-.792Zm11.603 8.496c-.372 1.092-.882 1.962-1.53 2.61-.648.648-1.554 1.032-2.718 1.152l-.216-1.206c.636-.108 1.14-.276 1.512-.504.384-.216.684-.492.9-.828.216-.324.414-.75.594-1.278h-.504l-3.294-9.486h1.602l2.718 8.334 2.682-8.334h1.566l-3.312 9.54Zm8.255-6.354c0 1.224.138 2.292.414 3.204.276.9.684 1.722 1.224 2.466.552.732 1.284 1.506 2.196 2.322l-.774.828c-1.056-.852-1.92-1.692-2.592-2.52a9.468 9.468 0 0 1-1.53-2.772c-.348-1.02-.522-2.196-.522-3.528 0-1.332.174-2.508.522-3.528.36-1.02.87-1.944 1.53-2.772.672-.828 1.536-1.668 2.592-2.52l.774.828c-.924.816-1.662 1.59-2.214 2.322a8.04 8.04 0 0 0-1.224 2.466c-.264.9-.396 1.968-.396 3.204Zm13.601-3.618c0 .372-.138.69-.414.954a1.332 1.332 0 0 1-.954.378c-.372 0-.69-.126-.954-.378a1.3 1.3 0 0 1-.396-.954c0-.348.102-.738.306-1.17l1.476-3.114h1.188l-.738 3.312a.981.981 0 0 1 .342.414c.096.18.144.366.144.558Zm13.457 8.694V332h-7.146v-1.224h3.042v-9.522l-2.826 1.71-.666-1.062 3.69-2.304h1.332v11.178h2.574Zm6.329-11.376c.756 0 1.416.15 1.98.45.576.3 1.014.714 1.314 1.242.3.516.45 1.104.45 1.764 0 .768-.18 1.512-.54 2.232-.348.72-.912 1.512-1.692 2.376-.78.852-1.884 1.932-3.312 3.24h5.832l-.18 1.296h-7.38v-1.224c1.62-1.548 2.82-2.76 3.6-3.636.792-.876 1.338-1.626 1.638-2.25.3-.624.45-1.284.45-1.98s-.198-1.242-.594-1.638c-.396-.396-.942-.594-1.638-.594-.588 0-1.08.102-1.476.306-.384.192-.78.528-1.188 1.008l-1.044-.81c.492-.612 1.038-1.062 1.638-1.35.612-.288 1.326-.432 2.142-.432Zm10.792 0c.756 0 1.422.144 1.998.432.576.276 1.02.654 1.332 1.134.312.468.468.984.468 1.548 0 .72-.234 1.35-.702 1.89a3.008 3.008 0 0 1-1.71.99c.78.06 1.44.354 1.98.882.552.528.828 1.248.828 2.16 0 .708-.18 1.35-.54 1.926-.36.576-.87 1.026-1.53 1.35-.648.324-1.392.486-2.232.486-.732 0-1.44-.138-2.124-.414a4.188 4.188 0 0 1-1.674-1.224l1.008-.828a3.43 3.43 0 0 0 1.224.918 3.957 3.957 0 0 0 1.53.306c.864 0 1.536-.222 2.016-.666.492-.456.738-1.074.738-1.854 0-1.572-.858-2.358-2.574-2.358h-1.026l.18-1.206h.738c.648 0 1.2-.18 1.656-.54.456-.372.684-.912.684-1.62 0-.66-.222-1.17-.666-1.53-.432-.372-.99-.558-1.674-.558a3.4 3.4 0 0 0-1.386.27c-.396.18-.81.468-1.242.864l-.828-.918c1.008-.96 2.184-1.44 3.528-1.44Zm15.455 9.594h-1.602V332h-1.458v-3.006h-5.148v-1.116l3.636-8.478 1.26.54-3.294 7.83h3.564l.126-3.51h1.314v3.51h1.602v1.224Zm5.429-9.882c0-.36.138-.666.414-.918a1.34 1.34 0 0 1 .954-.396c.384 0 .708.126.972.378.276.252.414.564.414.936 0 .168-.024.336-.072.504a5.185 5.185 0 0 1-.27.684l-1.476 3.114h-1.188l.738-3.312a1.341 1.341 0 0 1-.36-.414 1.345 1.345 0 0 1-.126-.576Zm13.619 6.588c0-1.236-.138-2.304-.414-3.204a7.538 7.538 0 0 0-1.224-2.466c-.54-.732-1.272-1.506-2.196-2.322l.774-.828c1.056.852 1.914 1.692 2.574 2.52a8.947 8.947 0 0 1 1.53 2.772c.36 1.02.54 2.196.54 3.528 0 1.332-.18 2.508-.54 3.528a8.947 8.947 0 0 1-1.53 2.772c-.66.828-1.518 1.668-2.574 2.52l-.774-.828c.912-.816 1.638-1.59 2.178-2.322a8.084 8.084 0 0 0 1.242-2.466c.276-.912.414-1.98.414-3.204ZM537.046 172.316c.54 0 .978.192 1.314.576.348.372.522 1.056.522 2.052V182h-1.386v-6.804c0-.66-.042-1.104-.126-1.332-.084-.24-.288-.36-.612-.36-.612 0-1.164.378-1.656 1.134V182h-1.404v-6.804c0-.66-.042-1.104-.126-1.332-.084-.24-.288-.36-.612-.36-.612 0-1.164.378-1.656 1.134V182h-1.386v-9.486h1.17l.108 1.116c.288-.42.588-.744.9-.972.324-.228.708-.342 1.152-.342.888 0 1.458.42 1.71 1.26.288-.408.594-.72.918-.936.324-.216.714-.324 1.17-.324Zm11.351 7.614c0 .372.06.648.18.828.12.168.318.294.594.378l-.378 1.08c-.924-.12-1.5-.57-1.728-1.35a3.26 3.26 0 0 1-1.278.99 4.06 4.06 0 0 1-1.692.342c-.948 0-1.698-.264-2.25-.792-.54-.528-.81-1.236-.81-2.124 0-.972.378-1.722 1.134-2.25.768-.528 1.866-.792 3.294-.792h1.404v-.774c0-.672-.192-1.152-.576-1.44-.384-.3-.942-.45-1.674-.45-.72 0-1.542.162-2.466.486l-.414-1.152c1.116-.396 2.154-.594 3.114-.594 1.152 0 2.028.27 2.628.81.612.54.918 1.29.918 2.25v4.554Zm-3.924 1.134c.468 0 .912-.12 1.332-.36.432-.24.786-.57 1.062-.99v-2.43h-1.368c-1.008 0-1.734.168-2.178.504-.444.336-.666.828-.666 1.476 0 1.2.606 1.8 1.818 1.8Zm15.455.45c-.324.216-.72.384-1.188.504-.456.12-.912.18-1.368.18-.996 0-1.776-.258-2.34-.774-.564-.528-.846-1.218-.846-2.07v-5.652h-2.178v-1.188h2.178v-2.142l1.512-.18v2.322h3.294l-.198 1.188h-3.096v5.634c0 .54.144.942.432 1.206.288.264.75.396 1.386.396.648 0 1.254-.15 1.818-.45l.594 1.026Zm7.553-.612c.828 0 1.65-.276 2.466-.828l.72.99c-.396.348-.888.624-1.476.828a5.204 5.204 0 0 1-1.71.306c-1.404 0-2.502-.438-3.294-1.314-.78-.888-1.17-2.082-1.17-3.582 0-.948.174-1.8.522-2.556.36-.756.876-1.35 1.548-1.782.672-.432 1.47-.648 2.394-.648 1.224 0 2.28.372 3.168 1.116l-.738.99c-.828-.552-1.644-.828-2.448-.828-.852 0-1.536.318-2.052.954-.504.624-.756 1.542-.756 2.754s.252 2.118.756 2.718c.516.588 1.206.882 2.07.882Zm8.003-7.074a3.85 3.85 0 0 1 1.368-1.116 3.769 3.769 0 0 1 1.674-.396c1.776 0 2.664.936 2.664 2.808V182h-1.512v-6.858c0-.564-.132-.972-.396-1.224-.264-.264-.684-.396-1.26-.396-.492 0-.966.156-1.422.468a4.229 4.229 0 0 0-1.116 1.098V182h-1.512v-13.284l1.512-.162v5.274Zm10.487 3.96c.036 1.044.306 1.83.81 2.358.516.528 1.164.792 1.944.792.468 0 .894-.066 1.278-.198.396-.144.816-.36 1.26-.648l.702 1.008a5.04 5.04 0 0 1-1.53.81 5.274 5.274 0 0 1-1.71.288c-1.368 0-2.436-.444-3.204-1.332-.756-.9-1.134-2.1-1.134-3.6 0-.948.168-1.794.504-2.538.336-.756.816-1.344 1.44-1.764.624-.432 1.35-.648 2.178-.648 1.2 0 2.142.42 2.826 1.26.696.828 1.044 1.962 1.044 3.402 0 .276-.012.546-.036.81h-6.372Zm2.556-4.23c-.732 0-1.326.264-1.782.792-.456.516-.714 1.278-.774 2.286h4.932c-.012-.996-.228-1.758-.648-2.286-.42-.528-.996-.792-1.728-.792Zm10.271 7.398c.72 0 1.29-.138 1.71-.414.42-.276.63-.642.63-1.098 0-.312-.054-.564-.162-.756-.108-.204-.324-.384-.648-.54-.324-.168-.816-.336-1.476-.504-1.104-.276-1.92-.606-2.448-.99-.528-.396-.792-.978-.792-1.746 0-.792.33-1.422.99-1.89.66-.468 1.53-.702 2.61-.702 1.32 0 2.472.348 3.456 1.044l-.684 1.044a4.848 4.848 0 0 0-1.242-.63c-.432-.156-.93-.234-1.494-.234-1.368 0-2.052.414-2.052 1.242 0 .288.072.522.216.702.156.18.402.342.738.486.348.132.864.294 1.548.486 1.032.276 1.8.63 2.304 1.062.516.42.774 1.038.774 1.854 0 .948-.384 1.656-1.152 2.124-.768.468-1.71.702-2.826.702-1.488 0-2.724-.426-3.708-1.278l.846-.99a4.88 4.88 0 0 0 1.314.756 4.47 4.47 0 0 0 1.548.27Zm9.587-5.256c0 1.224.138 2.292.414 3.204.276.9.684 1.722 1.224 2.466.552.732 1.284 1.506 2.196 2.322l-.774.828c-1.056-.852-1.92-1.692-2.592-2.52a9.468 9.468 0 0 1-1.53-2.772c-.348-1.02-.522-2.196-.522-3.528 0-1.332.174-2.508.522-3.528.36-1.02.87-1.944 1.53-2.772.672-.828 1.536-1.668 2.592-2.52l.774.828c-.924.816-1.662 1.59-2.214 2.322a8.04 8.04 0 0 0-1.224 2.466c-.264.9-.396 1.968-.396 3.204Zm15.905-4.842h-2.754v9.9h2.754V182h-7.092v-1.242h2.754v-9.9h-2.754v-1.26h7.092v1.26Zm8.813 4.842c0-1.236-.138-2.304-.414-3.204a7.538 7.538 0 0 0-1.224-2.466c-.54-.732-1.272-1.506-2.196-2.322l.774-.828c1.056.852 1.914 1.692 2.574 2.52a8.947 8.947 0 0 1 1.53 2.772c.36 1.02.54 2.196.54 3.528 0 1.332-.18 2.508-.54 3.528a8.947 8.947 0 0 1-1.53 2.772c-.66.828-1.518 1.668-2.574 2.52l-.774-.828c.912-.816 1.638-1.59 2.178-2.322a8.084 8.084 0 0 0 1.242-2.466c.276-.912.414-1.98.414-3.204Z" fill="#000"/><rect x="526" y="257" width="139" height="32" rx="4" fill="#D9D9D9"/><path d="M539.342 278.514c-.324.216-.72.384-1.188.504-.456.12-.912.18-1.368.18-.996 0-1.776-.258-2.34-.774-.564-.528-.846-1.218-.846-2.07v-5.652h-2.178v-1.188h2.178v-2.142l1.512-.18v2.322h3.294l-.198 1.188h-3.096v5.634c0 .54.144.942.432 1.206.288.264.75.396 1.386.396.648 0 1.254-.15 1.818-.45l.594 1.026Zm9.659-9.198c.384 0 .828.066 1.332.198l-.216 3.222h-1.224v-2.034h-.09c-1.464 0-2.502 1.044-3.114 3.132v3.996h1.926V279h-4.932v-1.17h1.494v-7.146h-1.494v-1.17h2.628l.288 2.25c.384-.816.84-1.428 1.368-1.836.54-.408 1.218-.612 2.034-.612Zm5.897 6.93c0 .612.126 1.062.378 1.35.264.276.672.414 1.224.414.504 0 .99-.144 1.458-.432.468-.288.84-.648 1.116-1.08v-6.984h1.512V279h-1.296l-.126-1.278a3.887 3.887 0 0 1-1.386 1.098 3.878 3.878 0 0 1-1.656.378c-.9 0-1.584-.24-2.052-.72-.456-.48-.684-1.17-.684-2.07v-6.894h1.512v6.732Zm10.487-1.458c.036 1.044.306 1.83.81 2.358.516.528 1.164.792 1.944.792.468 0 .894-.066 1.278-.198.396-.144.816-.36 1.26-.648l.702 1.008a5.04 5.04 0 0 1-1.53.81 5.274 5.274 0 0 1-1.71.288c-1.368 0-2.436-.444-3.204-1.332-.756-.9-1.134-2.1-1.134-3.6 0-.948.168-1.794.504-2.538.336-.756.816-1.344 1.44-1.764.624-.432 1.35-.648 2.178-.648 1.2 0 2.142.42 2.826 1.26.696.828 1.044 1.962 1.044 3.402 0 .276-.012.546-.036.81h-6.372Zm2.556-4.23c-.732 0-1.326.264-1.782.792-.456.516-.714 1.278-.774 2.286h4.932c-.012-.996-.228-1.758-.648-2.286-.42-.528-.996-.792-1.728-.792Zm22.09 10.278h-1.35v-16.362h1.35v16.362Zm22.918-15.318c.9 0 1.758.168 2.574.504l-.486 1.134c-.6-.264-1.278-.396-2.034-.396-1.32 0-1.98.522-1.98 1.566v1.926h3.204l-.162 1.206h-3.042V279h-1.53v-7.542h-2.25v-1.206h2.25v-1.89c0-.852.324-1.536.972-2.052.66-.528 1.488-.792 2.484-.792Zm11.999 11.412c0 .372.06.648.18.828.12.168.318.294.594.378l-.378 1.08c-.924-.12-1.5-.57-1.728-1.35a3.26 3.26 0 0 1-1.278.99 4.06 4.06 0 0 1-1.692.342c-.948 0-1.698-.264-2.25-.792-.54-.528-.81-1.236-.81-2.124 0-.972.378-1.722 1.134-2.25.768-.528 1.866-.792 3.294-.792h1.404v-.774c0-.672-.192-1.152-.576-1.44-.384-.3-.942-.45-1.674-.45-.72 0-1.542.162-2.466.486l-.414-1.152c1.116-.396 2.154-.594 3.114-.594 1.152 0 2.028.27 2.628.81.612.54.918 1.29.918 2.25v4.554Zm-3.924 1.134c.468 0 .912-.12 1.332-.36.432-.24.786-.57 1.062-.99v-2.43h-1.368c-1.008 0-1.734.168-2.178.504-.444.336-.666.828-.666 1.476 0 1.2.606 1.8 1.818 1.8Zm11.621-1.404c0 .852.522 1.278 1.566 1.278.492 0 1.02-.108 1.584-.324l.396 1.098c-.6.324-1.35.486-2.25.486-.852 0-1.536-.234-2.052-.702-.504-.468-.756-1.104-.756-1.908v-9.684h-2.916v-1.206h4.428v10.962Zm10.325 1.296c.72 0 1.29-.138 1.71-.414.42-.276.63-.642.63-1.098 0-.312-.054-.564-.162-.756-.108-.204-.324-.384-.648-.54-.324-.168-.816-.336-1.476-.504-1.104-.276-1.92-.606-2.448-.99-.528-.396-.792-.978-.792-1.746 0-.792.33-1.422.99-1.89.66-.468 1.53-.702 2.61-.702 1.32 0 2.472.348 3.456 1.044l-.684 1.044a4.848 4.848 0 0 0-1.242-.63c-.432-.156-.93-.234-1.494-.234-1.368 0-2.052.414-2.052 1.242 0 .288.072.522.216.702.156.18.402.342.738.486.348.132.864.294 1.548.486 1.032.276 1.8.63 2.304 1.062.516.42.774 1.038.774 1.854 0 .948-.384 1.656-1.152 2.124-.768.468-1.71.702-2.826.702-1.488 0-2.724-.426-3.708-1.278l.846-.99a4.88 4.88 0 0 0 1.314.756 4.47 4.47 0 0 0 1.548.27Zm8.759-3.168c.036 1.044.306 1.83.81 2.358.516.528 1.164.792 1.944.792.468 0 .894-.066 1.278-.198.396-.144.816-.36 1.26-.648l.702 1.008a5.04 5.04 0 0 1-1.53.81 5.274 5.274 0 0 1-1.71.288c-1.368 0-2.436-.444-3.204-1.332-.756-.9-1.134-2.1-1.134-3.6 0-.948.168-1.794.504-2.538.336-.756.816-1.344 1.44-1.764.624-.432 1.35-.648 2.178-.648 1.2 0 2.142.42 2.826 1.26.696.828 1.044 1.962 1.044 3.402 0 .276-.012.546-.036.81h-6.372Zm2.556-4.23c-.732 0-1.326.264-1.782.792-.456.516-.714 1.278-.774 2.286h4.932c-.012-.996-.228-1.758-.648-2.286-.42-.528-.996-.792-1.728-.792Z" fill="#000"/><rect x="418.5" y=".5" width="317" height="118" rx="11.5" fill="#FFFBEF" stroke="#FCCF2E"/><path d="M455.118 19.158c-1.596 0-2.346.48-2.25 1.44l.36 3.69c.012.108.018.264.018.468 0 .576-.138 1.02-.414 1.332-.276.3-.702.504-1.278.612.588.108 1.014.312 1.278.612.276.288.414.726.414 1.314 0 .204-.006.366-.018.486l-.36 3.69c-.048.528.132.9.54 1.116.408.216.978.324 1.71.324v1.206c-1.08 0-1.962-.186-2.646-.558-.684-.372-1.026-1.002-1.026-1.89 0-.156.006-.276.018-.36l.378-3.42c.012-.084.018-.204.018-.36 0-.528-.198-.918-.594-1.17-.396-.252-1.116-.378-2.16-.378v-1.224c1.044 0 1.764-.12 2.16-.36.396-.252.594-.642.594-1.17 0-.144-.006-.258-.018-.342l-.378-3.456a2.721 2.721 0 0 1-.018-.36c0-.888.342-1.518 1.026-1.89.684-.372 1.566-.558 2.646-.558v1.206Zm18.148 25.924a1.3 1.3 0 0 1-.396.954 1.354 1.354 0 0 1-.972.378c-.372 0-.69-.126-.954-.378a1.3 1.3 0 0 1-.396-.954c0-.324.108-.714.324-1.17l1.458-3.114h1.206l-.738 3.312a.981.981 0 0 1 .342.414c.084.168.126.354.126.558Zm3.906 0c0 .36-.138.672-.414.936a1.34 1.34 0 0 1-.954.396c-.372 0-.69-.126-.954-.378a1.3 1.3 0 0 1-.396-.954c0-.348.102-.738.306-1.17l1.476-3.114h1.188l-.738 3.312a.981.981 0 0 1 .342.414c.096.18.144.366.144.558Zm10.415.234c.384 0 .828.066 1.332.198l-.216 3.222h-1.224v-2.034h-.09c-1.464 0-2.502 1.044-3.114 3.132v3.996h1.926V55h-4.932v-1.17h1.494v-7.146h-1.494v-1.17h2.628l.288 2.25c.384-.816.84-1.428 1.368-1.836.54-.408 1.218-.612 2.034-.612Zm5.591 5.472c.036 1.044.306 1.83.81 2.358.516.528 1.164.792 1.944.792.468 0 .894-.066 1.278-.198.396-.144.816-.36 1.26-.648l.702 1.008a5.04 5.04 0 0 1-1.53.81 5.274 5.274 0 0 1-1.71.288c-1.368 0-2.436-.444-3.204-1.332-.756-.9-1.134-2.1-1.134-3.6 0-.948.168-1.794.504-2.538.336-.756.816-1.344 1.44-1.764.624-.432 1.35-.648 2.178-.648 1.2 0 2.142.42 2.826 1.26.696.828 1.044 1.962 1.044 3.402 0 .276-.012.546-.036.81h-6.372Zm2.556-4.23c-.732 0-1.326.264-1.782.792-.456.516-.714 1.278-.774 2.286h4.932c-.012-.996-.228-1.758-.648-2.286-.42-.528-.996-.792-1.728-.792Zm11.333 7.344c.828 0 1.65-.276 2.466-.828l.72.99c-.396.348-.888.624-1.476.828a5.204 5.204 0 0 1-1.71.306c-1.404 0-2.502-.438-3.294-1.314-.78-.888-1.17-2.082-1.17-3.582 0-.948.174-1.8.522-2.556.36-.756.876-1.35 1.548-1.782.672-.432 1.47-.648 2.394-.648 1.224 0 2.28.372 3.168 1.116l-.738.99c-.828-.552-1.644-.828-2.448-.828-.852 0-1.536.318-2.052.954-.504.624-.756 1.542-.756 2.754s.252 2.118.756 2.718c.516.588 1.206.882 2.07.882Zm10.109-8.586c1.308 0 2.31.444 3.006 1.332.708.876 1.062 2.076 1.062 3.6 0 1.488-.36 2.688-1.08 3.6-.708.9-1.71 1.35-3.006 1.35-1.308 0-2.316-.438-3.024-1.314-.708-.888-1.062-2.094-1.062-3.618 0-1.5.354-2.7 1.062-3.6.72-.9 1.734-1.35 3.042-1.35Zm0 1.242c-.828 0-1.446.306-1.854.918-.408.612-.612 1.542-.612 2.79s.198 2.178.594 2.79c.408.6 1.026.9 1.854.9.828 0 1.44-.3 1.836-.9.408-.612.612-1.548.612-2.808 0-1.248-.204-2.172-.612-2.772-.396-.612-1.002-.918-1.818-.918Zm13.583-1.242c.384 0 .828.066 1.332.198l-.216 3.222h-1.224v-2.034h-.09c-1.464 0-2.502 1.044-3.114 3.132v3.996h1.926V55h-4.932v-1.17h1.494v-7.146h-1.494v-1.17h2.628l.288 2.25c.384-.816.84-1.428 1.368-1.836.54-.408 1.218-.612 2.034-.612Zm11.585-3.618V55h-1.332l-.144-1.242c-.348.48-.75.84-1.206 1.08-.456.24-.948.36-1.476.36-1.2 0-2.106-.438-2.718-1.314-.6-.876-.9-2.082-.9-3.618 0-.948.15-1.794.45-2.538.3-.756.726-1.344 1.278-1.764.564-.432 1.224-.648 1.98-.648 1.044 0 1.896.378 2.556 1.134v-4.932l1.512.18Zm-3.672 4.842c-.792 0-1.404.312-1.836.936-.42.624-.63 1.554-.63 2.79 0 1.224.192 2.154.576 2.79.396.624.966.936 1.71.936.9 0 1.68-.504 2.34-1.512v-4.716a2.72 2.72 0 0 0-.954-.9 2.36 2.36 0 0 0-1.206-.324Zm7.661-4.41c0-.36.138-.666.414-.918a1.34 1.34 0 0 1 .954-.396c.384 0 .708.126.972.378s.396.564.396.936c0 .168-.024.336-.072.504a5.185 5.185 0 0 1-.27.684l-1.458 3.114h-1.188l.72-3.312a.981.981 0 0 1-.342-.414 1.345 1.345 0 0 1-.126-.576Zm3.906 0c0-.36.132-.666.396-.918.276-.264.6-.396.972-.396s.69.132.954.396c.276.252.414.558.414.918 0 .168-.024.336-.072.504a5.185 5.185 0 0 1-.27.684l-1.476 3.114h-1.188l.738-3.312a.981.981 0 0 1-.342-.414 1.345 1.345 0 0 1-.126-.576Zm51.805 5.112c0-.396.138-.732.414-1.008a1.364 1.364 0 0 1 1.026-.432c.42 0 .768.144 1.044.432.276.276.414.612.414 1.008 0 .408-.138.756-.414 1.044a1.385 1.385 0 0 1-1.044.432c-.408 0-.75-.144-1.026-.432a1.454 1.454 0 0 1-.414-1.044Zm0 6.498c0-.396.138-.738.414-1.026a1.364 1.364 0 0 1 1.026-.432c.42 0 .768.144 1.044.432.276.276.414.618.414 1.026 0 .42-.138.768-.414 1.044-.276.276-.624.414-1.044.414-.408 0-.75-.138-1.026-.414-.276-.276-.414-.624-.414-1.044Zm25.762-12.582c-1.596 0-2.346.48-2.25 1.44l.36 3.69c.012.108.018.264.018.468 0 .576-.138 1.02-.414 1.332-.276.3-.702.504-1.278.612.588.108 1.014.312 1.278.612.276.288.414.726.414 1.314 0 .204-.006.366-.018.486l-.36 3.69c-.048.528.132.9.54 1.116.408.216.978.324 1.71.324v1.206c-1.08 0-1.962-.186-2.646-.558-.684-.372-1.026-1.002-1.026-1.89 0-.156.006-.276.018-.36l.378-3.42c.012-.084.018-.204.018-.36 0-.528-.198-.918-.594-1.17-.396-.252-1.116-.378-2.16-.378v-1.224c1.044 0 1.764-.12 2.16-.36.396-.252.594-.642.594-1.17 0-.144-.006-.258-.018-.342l-.378-3.456a2.721 2.721 0 0 1-.018-.36c0-.888.342-1.518 1.026-1.89.684-.372 1.566-.558 2.646-.558v1.206Zm6.472 12.456c0-.444.15-.816.45-1.116.312-.312.69-.468 1.134-.468.456 0 .834.156 1.134.468.3.3.45.672.45 1.116 0 .456-.15.834-.45 1.134-.3.3-.678.45-1.134.45-.444 0-.822-.15-1.134-.45-.3-.312-.45-.69-.45-1.134Zm10.793 0c0-.444.15-.816.45-1.116.312-.312.69-.468 1.134-.468.456 0 .834.156 1.134.468.3.3.45.672.45 1.116 0 .456-.15.834-.45 1.134-.3.3-.678.45-1.134.45-.444 0-.822-.15-1.134-.45-.3-.312-.45-.69-.45-1.134Zm10.793 0c0-.444.15-.816.45-1.116.312-.312.69-.468 1.134-.468.456 0 .834.156 1.134.468.3.3.45.672.45 1.116 0 .456-.15.834-.45 1.134-.3.3-.678.45-1.134.45-.444 0-.822-.15-1.134-.45-.3-.312-.45-.69-.45-1.134Zm9.677-13.662c1.08 0 1.962.186 2.646.558.684.372 1.026 1.002 1.026 1.89 0 .156-.006.276-.018.36l-.378 3.456c-.012.06-.018.15-.018.27 0 .54.21.942.63 1.206.432.264 1.14.396 2.124.396v1.224c-.996 0-1.704.132-2.124.396-.42.264-.63.672-.63 1.224 0 .12.006.216.018.288l.378 3.42c.012.084.018.204.018.36 0 .888-.342 1.518-1.026 1.89-.684.372-1.566.558-2.646.558v-1.206c.732 0 1.302-.108 1.71-.324.408-.216.588-.588.54-1.116l-.36-3.69a6.007 6.007 0 0 1-.036-.486c0-.6.15-1.044.45-1.332.3-.288.786-.48 1.458-.576-.648-.12-1.128-.33-1.44-.63-.3-.312-.45-.762-.45-1.35 0-.192.006-.342.018-.45l.36-3.69c.096-.96-.654-1.44-2.25-1.44v-1.206Zm13.511 12.078c.408 0 .75.144 1.026.432.288.276.432.612.432 1.008 0 .444-.114.918-.342 1.422l-1.458 3.33h-1.368l.846-3.546a1.509 1.509 0 0 1-.414-.522 1.473 1.473 0 0 1-.162-.666c0-.408.138-.75.414-1.026a1.364 1.364 0 0 1 1.026-.432ZM473.266 67.082a1.3 1.3 0 0 1-.396.954 1.354 1.354 0 0 1-.972.378c-.372 0-.69-.126-.954-.378a1.3 1.3 0 0 1-.396-.954c0-.324.108-.714.324-1.17l1.458-3.114h1.206l-.738 3.312a.981.981 0 0 1 .342.414c.084.168.126.354.126.558Zm3.906 0c0 .36-.138.672-.414.936a1.34 1.34 0 0 1-.954.396c-.372 0-.69-.126-.954-.378a1.3 1.3 0 0 1-.396-.954c0-.348.102-.738.306-1.17l1.476-3.114h1.188l-.738 3.312a.981.981 0 0 1 .342.414c.096.18.144.366.144.558Zm8.255.234c2.292 0 3.438 1.644 3.438 4.932 0 1.5-.312 2.7-.936 3.6-.624.9-1.53 1.35-2.718 1.35-1.032 0-1.872-.36-2.52-1.08v4.518l-1.512.18V67.514h1.296l.126 1.332a3.71 3.71 0 0 1 1.242-1.134 3.3 3.3 0 0 1 1.584-.396Zm-.36 1.224c-.48 0-.924.144-1.332.432a4.478 4.478 0 0 0-1.044 1.08v4.698c.252.372.564.666.936.882.384.204.798.306 1.242.306.792 0 1.38-.3 1.764-.9.396-.612.594-1.542.594-2.79s-.174-2.178-.522-2.79c-.348-.612-.894-.918-1.638-.918Zm13.709 6.39c0 .372.06.648.18.828.12.168.318.294.594.378l-.378 1.08c-.924-.12-1.5-.57-1.728-1.35a3.26 3.26 0 0 1-1.278.99 4.06 4.06 0 0 1-1.692.342c-.948 0-1.698-.264-2.25-.792-.54-.528-.81-1.236-.81-2.124 0-.972.378-1.722 1.134-2.25.768-.528 1.866-.792 3.294-.792h1.404v-.774c0-.672-.192-1.152-.576-1.44-.384-.3-.942-.45-1.674-.45-.72 0-1.542.162-2.466.486l-.414-1.152c1.116-.396 2.154-.594 3.114-.594 1.152 0 2.028.27 2.628.81.612.54.918 1.29.918 2.25v4.554Zm-3.924 1.134c.468 0 .912-.12 1.332-.36.432-.24.786-.57 1.062-.99v-2.43h-1.368c-1.008 0-1.734.168-2.178.504-.444.336-.666.828-.666 1.476 0 1.2.606 1.8 1.818 1.8Zm14.321-8.748c.384 0 .828.066 1.332.198l-.216 3.222h-1.224v-2.034h-.09c-1.464 0-2.502 1.044-3.114 3.132v3.996h1.926V77h-4.932v-1.17h1.494v-7.146h-1.494v-1.17h2.628l.288 2.25c.384-.816.84-1.428 1.368-1.836.54-.408 1.218-.612 2.034-.612Zm11.189 7.614c0 .372.06.648.18.828.12.168.318.294.594.378l-.378 1.08c-.924-.12-1.5-.57-1.728-1.35a3.26 3.26 0 0 1-1.278.99 4.06 4.06 0 0 1-1.692.342c-.948 0-1.698-.264-2.25-.792-.54-.528-.81-1.236-.81-2.124 0-.972.378-1.722 1.134-2.25.768-.528 1.866-.792 3.294-.792h1.404v-.774c0-.672-.192-1.152-.576-1.44-.384-.3-.942-.45-1.674-.45-.72 0-1.542.162-2.466.486l-.414-1.152c1.116-.396 2.154-.594 3.114-.594 1.152 0 2.028.27 2.628.81.612.54.918 1.29.918 2.25v4.554Zm-3.924 1.134c.468 0 .912-.12 1.332-.36.432-.24.786-.57 1.062-.99v-2.43h-1.368c-1.008 0-1.734.168-2.178.504-.444.336-.666.828-.666 1.476 0 1.2.606 1.8 1.818 1.8Zm14.159-8.748c.54 0 .978.192 1.314.576.348.372.522 1.056.522 2.052V77h-1.386v-6.804c0-.66-.042-1.104-.126-1.332-.084-.24-.288-.36-.612-.36-.612 0-1.164.378-1.656 1.134V77h-1.404v-6.804c0-.66-.042-1.104-.126-1.332-.084-.24-.288-.36-.612-.36-.612 0-1.164.378-1.656 1.134V77h-1.386v-9.486h1.17l.108 1.116c.288-.42.588-.744.9-.972.324-.228.708-.342 1.152-.342.888 0 1.458.42 1.71 1.26.288-.408.594-.72.918-.936.324-.216.714-.324 1.17-.324Zm5.753 5.472c.036 1.044.306 1.83.81 2.358.516.528 1.164.792 1.944.792.468 0 .894-.066 1.278-.198.396-.144.816-.36 1.26-.648l.702 1.008a5.04 5.04 0 0 1-1.53.81 5.274 5.274 0 0 1-1.71.288c-1.368 0-2.436-.444-3.204-1.332-.756-.9-1.134-2.1-1.134-3.6 0-.948.168-1.794.504-2.538.336-.756.816-1.344 1.44-1.764.624-.432 1.35-.648 2.178-.648 1.2 0 2.142.42 2.826 1.26.696.828 1.044 1.962 1.044 3.402 0 .276-.012.546-.036.81h-6.372Zm2.556-4.23c-.732 0-1.326.264-1.782.792-.456.516-.714 1.278-.774 2.286h4.932c-.012-.996-.228-1.758-.648-2.286-.42-.528-.996-.792-1.728-.792Zm14.573 7.956c-.324.216-.72.384-1.188.504-.456.12-.912.18-1.368.18-.996 0-1.776-.258-2.34-.774-.564-.528-.846-1.218-.846-2.07v-5.652h-2.178v-1.188h2.178v-2.142l1.512-.18v2.322h3.294l-.198 1.188h-3.096v5.634c0 .54.144.942.432 1.206.288.264.75.396 1.386.396.648 0 1.254-.15 1.818-.45l.594 1.026Zm4.457-3.726c.036 1.044.306 1.83.81 2.358.516.528 1.164.792 1.944.792.468 0 .894-.066 1.278-.198.396-.144.816-.36 1.26-.648l.702 1.008a5.04 5.04 0 0 1-1.53.81 5.274 5.274 0 0 1-1.71.288c-1.368 0-2.436-.444-3.204-1.332-.756-.9-1.134-2.1-1.134-3.6 0-.948.168-1.794.504-2.538.336-.756.816-1.344 1.44-1.764.624-.432 1.35-.648 2.178-.648 1.2 0 2.142.42 2.826 1.26.696.828 1.044 1.962 1.044 3.402 0 .276-.012.546-.036.81h-6.372Zm2.556-4.23c-.732 0-1.326.264-1.782.792-.456.516-.714 1.278-.774 2.286h4.932c-.012-.996-.228-1.758-.648-2.286-.42-.528-.996-.792-1.728-.792Zm13.439-1.242c.384 0 .828.066 1.332.198l-.216 3.222h-1.224v-2.034h-.09c-1.464 0-2.502 1.044-3.114 3.132v3.996h1.926V77h-4.932v-1.17h1.494v-7.146h-1.494v-1.17h2.628l.288 2.25c.384-.816.84-1.428 1.368-1.836.54-.408 1.218-.612 2.034-.612Zm7.625 8.64c.72 0 1.29-.138 1.71-.414.42-.276.63-.642.63-1.098 0-.312-.054-.564-.162-.756-.108-.204-.324-.384-.648-.54-.324-.168-.816-.336-1.476-.504-1.104-.276-1.92-.606-2.448-.99-.528-.396-.792-.978-.792-1.746 0-.792.33-1.422.99-1.89.66-.468 1.53-.702 2.61-.702 1.32 0 2.472.348 3.456 1.044l-.684 1.044a4.848 4.848 0 0 0-1.242-.63c-.432-.156-.93-.234-1.494-.234-1.368 0-2.052.414-2.052 1.242 0 .288.072.522.216.702.156.18.402.342.738.486.348.132.864.294 1.548.486 1.032.276 1.8.63 2.304 1.062.516.42.774 1.038.774 1.854 0 .948-.384 1.656-1.152 2.124-.768.468-1.71.702-2.826.702-1.488 0-2.724-.426-3.708-1.278l.846-.99a4.88 4.88 0 0 0 1.314.756 4.47 4.47 0 0 0 1.548.27Zm7.949-11.826c0-.36.138-.666.414-.918a1.34 1.34 0 0 1 .954-.396c.384 0 .708.126.972.378s.396.564.396.936c0 .168-.024.336-.072.504a5.185 5.185 0 0 1-.27.684l-1.458 3.114h-1.188l.72-3.312a.981.981 0 0 1-.342-.414 1.345 1.345 0 0 1-.126-.576Zm3.906 0c0-.36.132-.666.396-.918.276-.264.6-.396.972-.396s.69.132.954.396c.276.252.414.558.414.918 0 .168-.024.336-.072.504a5.185 5.185 0 0 1-.27.684l-1.476 3.114h-1.188l.738-3.312a.981.981 0 0 1-.342-.414 1.345 1.345 0 0 1-.126-.576Zm8.633 5.112c0-.396.138-.732.414-1.008a1.364 1.364 0 0 1 1.026-.432c.42 0 .768.144 1.044.432.276.276.414.612.414 1.008 0 .408-.138.756-.414 1.044a1.385 1.385 0 0 1-1.044.432c-.408 0-.75-.144-1.026-.432a1.454 1.454 0 0 1-.414-1.044Zm0 6.498c0-.396.138-.738.414-1.026a1.364 1.364 0 0 1 1.026-.432c.42 0 .768.144 1.044.432.276.276.414.618.414 1.026 0 .42-.138.768-.414 1.044-.276.276-.624.414-1.044.414-.408 0-.75-.138-1.026-.414-.276-.276-.414-.624-.414-1.044ZM623 62.33h4.518v1.296h-3.079v14.166h3.079v1.278H623V62.33Zm14.122 4.752c0 .372-.138.69-.414.954a1.332 1.332 0 0 1-.954.378c-.372 0-.69-.126-.954-.378a1.3 1.3 0 0 1-.396-.954c0-.348.102-.738.306-1.17l1.476-3.114h1.188l-.738 3.312a.981.981 0 0 1 .342.414c.096.18.144.366.144.558Zm13.457 8.694V77h-7.146v-1.224h3.042v-9.522l-2.826 1.71-.666-1.062 3.69-2.304h1.332v11.178h2.574Zm6.329-11.376c.756 0 1.416.15 1.98.45.576.3 1.014.714 1.314 1.242.3.516.45 1.104.45 1.764 0 .768-.18 1.512-.54 2.232-.348.72-.912 1.512-1.692 2.376-.78.852-1.884 1.932-3.312 3.24h5.832L660.76 77h-7.38v-1.224c1.62-1.548 2.82-2.76 3.6-3.636.792-.876 1.338-1.626 1.638-2.25.3-.624.45-1.284.45-1.98s-.198-1.242-.594-1.638c-.396-.396-.942-.594-1.638-.594-.588 0-1.08.102-1.476.306-.384.192-.78.528-1.188 1.008l-1.044-.81c.492-.612 1.038-1.062 1.638-1.35.612-.288 1.326-.432 2.142-.432Zm10.793 0c.756 0 1.422.144 1.998.432.576.276 1.02.654 1.332 1.134.312.468.468.984.468 1.548 0 .72-.234 1.35-.702 1.89a3.008 3.008 0 0 1-1.71.99c.78.06 1.44.354 1.98.882.552.528.828 1.248.828 2.16 0 .708-.18 1.35-.54 1.926-.36.576-.87 1.026-1.53 1.35-.648.324-1.392.486-2.232.486-.732 0-1.44-.138-2.124-.414a4.188 4.188 0 0 1-1.674-1.224l1.008-.828a3.43 3.43 0 0 0 1.224.918 3.957 3.957 0 0 0 1.53.306c.864 0 1.536-.222 2.016-.666.492-.456.738-1.074.738-1.854 0-1.572-.858-2.358-2.574-2.358h-1.026l.18-1.206h.738c.648 0 1.2-.18 1.656-.54.456-.372.684-.912.684-1.62 0-.66-.222-1.17-.666-1.53-.432-.372-.99-.558-1.674-.558a3.4 3.4 0 0 0-1.386.27c-.396.18-.81.468-1.242.864l-.828-.918c1.008-.96 2.184-1.44 3.528-1.44Zm15.455 9.594h-1.602V77h-1.458v-3.006h-5.148v-1.116l3.636-8.478 1.26.54-3.294 7.83h3.564l.126-3.51h1.314v3.51h1.602v1.224Zm5.429-9.882c0-.36.138-.666.414-.918a1.34 1.34 0 0 1 .954-.396c.384 0 .708.126.972.378.276.252.414.564.414.936 0 .168-.024.336-.072.504a5.185 5.185 0 0 1-.27.684l-1.476 3.114h-1.188l.738-3.312a1.341 1.341 0 0 1-.36-.414 1.345 1.345 0 0 1-.126-.576Zm14.141 14.958h-4.518v-1.278h3.078V63.626h-3.078V62.33h4.518v16.74Zm-253.044 4.882c1.08 0 1.962.186 2.646.558.684.372 1.026 1.002 1.026 1.89 0 .156-.006.276-.018.36l-.378 3.456c-.012.06-.018.15-.018.27 0 .54.21.942.63 1.206.432.264 1.14.396 2.124.396v1.224c-.996 0-1.704.132-2.124.396-.42.264-.63.672-.63 1.224 0 .12.006.216.018.288l.378 3.42c.012.084.018.204.018.36 0 .888-.342 1.518-1.026 1.89-.684.372-1.566.558-2.646.558v-1.206c.732 0 1.302-.108 1.71-.324.408-.216.588-.588.54-1.116l-.36-3.69a6.007 6.007 0 0 1-.036-.486c0-.6.15-1.044.45-1.332.3-.288.786-.48 1.458-.576-.648-.12-1.128-.33-1.44-.63-.3-.312-.45-.762-.45-1.35 0-.192.006-.342.018-.45l.36-3.69c.096-.96-.654-1.44-2.25-1.44v-1.206Z" fill="#000"/><path d="M148.689 186.292h20.358c12.528 0 12.528 12.529 0 12.529h-20.358v-12.529Zm-48.547 57.944h62.641v-17.227h-14.094v-12.528h15.66c17.226 0 7.83 29.755 21.925 29.755h39.15v-29.755h-9.396v3.132c0 12.529-14.094 10.962-15.66 3.132-1.566-7.83-7.83-14.094-9.396-14.094 23.49-12.528 9.396-37.585-9.397-37.585h-73.603v17.226h15.66v40.717h-23.49v17.227Z" fill="#000" stroke="#000" stroke-linejoin="round"/><path d="M162 276.34c37.191 0 67.34-30.149 67.34-67.34s-30.149-67.34-67.34-67.34S94.66 171.809 94.66 209s30.149 67.34 67.34 67.34Z" stroke="#000" stroke-width="9"/><path d="m234.038 213.698 7.83-4.698-7.83-4.698v9.396ZM231.737 227.662l8.596-3.081-6.763-6.135-1.833 9.216ZM226.757 240.908l9.032-1.344-5.437-7.337-3.595 8.681ZM219.287 252.929l9.121.443-3.901-8.256-5.22 7.813ZM209.616 263.26l8.859 2.215-2.215-8.859-6.644 6.644ZM198.116 271.507l8.256 3.901-.444-9.121-7.812 5.22ZM185.227 277.352l7.337 5.436 1.344-9.032-8.681 3.596ZM171.446 280.57l6.135 6.763 3.081-8.596-9.216 1.833ZM157.302 281.038l4.698 7.83 4.698-7.83h-9.396ZM143.338 278.737l3.081 8.596 6.135-6.763-9.216-1.833ZM130.092 273.756l1.344 9.032 7.337-5.436-8.681-3.596ZM118.072 266.287l-.444 9.121 8.256-3.901-7.812-5.22ZM107.74 256.616l-2.215 8.859 8.859-2.215-6.644-6.644ZM99.493 245.116l-3.9 8.256 9.12-.444-5.22-7.812ZM93.648 232.227l-5.436 7.337 9.032 1.344-3.596-8.681ZM90.43 218.446l-6.763 6.135 8.596 3.081-1.833-9.216ZM89.962 204.302 82.132 209l7.83 4.698v-9.396ZM92.263 190.338l-8.596 3.081 6.763 6.135 1.833-9.216ZM97.244 177.092l-9.032 1.344 5.436 7.337 3.596-8.681ZM104.713 165.072l-9.12-.444 3.9 8.256 5.22-7.812ZM114.384 154.74l-8.859-2.215 2.215 8.859 6.644-6.644ZM125.884 146.493l-8.256-3.901.444 9.121 7.812-5.22ZM138.773 140.648l-7.337-5.436-1.344 9.032 8.681-3.596ZM152.554 137.43l-6.135-6.763-3.081 8.596 9.216-1.833ZM166.698 136.962l-4.698-7.83-4.698 7.83h9.396ZM180.661 139.263l-3.08-8.596-6.135 6.763 9.215 1.833ZM193.908 144.244l-1.344-9.032-7.337 5.436 8.681 3.596ZM205.929 151.713l.444-9.121-8.257 3.901 7.813 5.22ZM216.26 161.384l2.215-8.859-8.859 2.215 6.644 6.644ZM224.507 172.884l3.901-8.256-9.121.444 5.22 7.812ZM230.352 185.773l5.436-7.337-9.032-1.344 3.596 8.681ZM233.57 199.554l6.763-6.135-8.596-3.081 1.833 9.216Z" fill="#000" stroke="#000" stroke-width="3" stroke-linejoin="round"/><path d="M151.038 143.226 162 154.189l10.962-10.963h-21.924ZM221.167 178.249l-7.038 13.813 13.813 7.039-6.775-20.852ZM209.53 255.768l-15.313-2.425-2.425 15.312 17.738-12.887ZM132.208 268.656l-2.425-15.312-15.312 2.425 17.737 12.887ZM96.058 199.1l13.813-7.038-7.038-13.813-6.775 20.851Z" fill="#000" stroke="#000" stroke-width="6" stroke-linejoin="round"/><defs><linearGradient id="a" x1="1003.5" y1="64" x2="1003.5" y2="389" gradientUnits="userSpaceOnUse"><stop stop-color="#4835BF"/><stop offset="1" stop-color="#201564"/></linearGradient><linearGradient id="b" x1="237" y1="72" x2="162.5" y2="389" gradientUnits="userSpaceOnUse"><stop stop-color="#636363"/><stop offset="1" stop-color="#06021F"/></linearGradient><linearGradient id="d" x1="1003.5" y1="145" x2="975.383" y2="280.698" gradientUnits="userSpaceOnUse"><stop stop-color="#8A79F5"/><stop offset="1" stop-color="#3A29A7"/></linearGradient><clipPath id="c"><path fill="#fff" transform="translate(922 145)" d="M0 0h163v163H0z"/></clipPath></defs></svg>